<?xml version="1.0" encoding="iso-8859-1"?>
<!-- Generator: Adobe Illustrator 19.0.0, SVG Export Plug-In . SVG Version: 6.00 Build 0)  -->
<svg version="1.1" id="Capa_1" xmlns="http://www.w3.org/2000/svg" xmlns:xlink="http://www.w3.org/1999/xlink" x="0px" y="0px"
	 viewBox="0 0 512.013 512.013" style="enable-background:new 0 0 512.013 512.013;" xml:space="preserve">
<g>
	<g>
		<path d="M506.178,125.864L386.13,5.823C382.403,2.096,377.342,0,372.063,0c-0.007,0-0.007,0-0.013,0
			c-5.279,0.007-10.339,2.109-14.067,5.843L39.641,324.848c-2.673,2.686-4.523,6.068-5.345,9.769L0.472,487.826
			c-1.459,6.632,0.557,13.556,5.365,18.358c3.767,3.774,8.847,5.83,14.067,5.83c1.433,0,2.865-0.153,4.291-0.478l153.202-33.83
			c3.694-0.816,7.083-2.679,9.762-5.352l319.005-318.335c3.74-3.727,5.843-8.794,5.843-14.073S509.912,129.598,506.178,125.864z
			 M163.158,440.114L46.054,465.973l25.859-117.11l300.17-300.8l91.875,91.881L163.158,440.114z"/>
	</g>
</g>
<g>
	<g>
		
			<rect x="341.228" y="66.051" transform="matrix(0.7071 -0.7071 0.7071 0.7071 -0.9546 299.5582)" width="39.786" height="169.761"/>
	</g>
</g>
<g>
	<g>
		
			<rect x="93.513" y="314.186" transform="matrix(0.7071 -0.7071 0.7071 0.7071 -248.6361 196.937)" width="39.786" height="168.826"/>
	</g>
</g>
<g>
</g>
<g>
</g>
<g>
</g>
<g>
</g>
<g>
</g>
<g>
</g>
<g>
</g>
<g>
</g>
<g>
</g>
<g>
</g>
<g>
</g>
<g>
</g>
<g>
</g>
<g>
</g>
<g>
</g>
</svg>
